<svg width="128" height="128" viewBox="0 0 128 128" fill="none" xmlns="http://www.w3.org/2000/svg">
<path d="M34.1711 20.3061L37.9312 18.076C55.553 7.62468 77.587 8.11468 94.7268 19.339C109.874 29.2582 119 46.3944 119 64.5C119 82.6056 109.874 99.7418 94.7268 109.661C77.587 120.885 55.553 121.375 37.9312 110.924L34.1711 108.694C18.5671 99.4394 9 82.642 9 64.5C9 46.358 18.5671 29.5606 34.1711 20.3061Z" fill="#526D82" stroke="black"/>
<path d="M46.9508 37.3667L48.474 36.4375C58.9007 30.077 72.0774 30.3736 82.2074 37.1968C90.8301 43.0047 96 52.7203 96 63.1166V64.8834C96 75.2797 90.8301 84.9953 82.2074 90.8032C72.0774 97.6264 58.9007 97.923 48.474 91.5625L46.9508 90.6333C37.6651 84.9689 32 74.877 32 64C32 53.1229 37.6651 43.0311 46.9508 37.3667Z" fill="#DDE6ED" stroke="black"/>
<path d="M24.3841 65.3781L30.5932 40.9169C30.9515 39.5052 32.6503 38.9377 33.7852 39.8505L57.6535 59.0477C58.6226 59.8272 60.0606 59.5425 60.6597 58.4527L90.9335 3.37579C91.5822 2.19577 93.188 1.98091 94.124 2.94889L117.607 27.2342C118.376 28.0292 118.354 29.2972 117.557 30.0646L60.5619 84.9876C59.9359 85.5908 58.992 85.7206 58.2264 85.3086L25.375 67.6313C24.5669 67.1965 24.1584 66.2675 24.3841 65.3781Z" fill="#27374D" stroke="black"/>
</svg>
